<?xml version="1.0" encoding="UTF-8"?>
<svg id="Layer_2" data-name="Layer 2" xmlns="http://www.w3.org/2000/svg" viewBox="0 0 328 257.88">
  <g id="Layer_1-2" data-name="Layer 1">
    <g>
      <ellipse cx="164" cy="230.88" rx="164" ry="27" fill="#ebebeb" opacity=".3"/>
      <rect x="40" y="119.88" width="247" height="110" rx="17.48" ry="17.48" fill="#f8f8f8" stroke="#363636" stroke-miterlimit="10" stroke-width="2.81"/>
      <path d="M287,209.88v2.52c0,9.61-7.87,17.48-17.48,17.48H57.48c-9.61,0-17.48-7.87-17.48-17.48v-75.04c0-9.61,7.87-17.48,17.48-17.48h2.52v72.52c0,9.61,7.87,17.48,17.48,17.48h209.52Z" fill="#ebebeb"/>
      <rect x="40" y="119.88" width="247" height="110" rx="17.48" ry="17.48" fill="none" stroke="#363636" stroke-miterlimit="10" stroke-width="2.81"/>
      <rect x="40" y="85.88" width="247" height="55" rx="10" ry="10" fill="#f8f8f8" stroke="#363636" stroke-miterlimit="10" stroke-width="2.81"/>
      <path d="M82,116.88l-12-24S14,73.88,46,31.88c0,0,9,26,14,26s16-5,17-8,1-5,1-5l-10-24s57,3,29,62l14,34" fill="#ebebeb" stroke="#363636" stroke-miterlimit="10" stroke-width="2.81"/>
      <polygon points="133 117.88 126 71.88 120 70.88 121 32.88 134 30.88 146 64.88 141 68.88 149 117.88 133 117.88" fill="#ebebeb" stroke="#363636" stroke-miterlimit="10" stroke-width="2.81"/>
      <path d="M183,118.88l40.84-75.7c.12-.23,.23-.46,.32-.7,.94-2.47,5.25-15.7-10.16-16.6-13.4-.79-26.18,3.39-30.99,5.2-2.29,.86-4.89,.29-6.53-1.52-.04-.04-.08-.08-.12-.13-2.35-2.66-1.78-6.81,1.12-8.86,7.3-5.18,21.97-14.73,32.14-15.66,.25-.02,.49-.06,.73-.11,2.78-.64,21.18-4.76,27.65-2.92,0,0,7,1,10,3l32.06,16.97c1.23,.65,2.19,1.7,2.74,2.98,1.61,3.74,5.4,11.78,9.2,14.05,4.04,2.42,11.99,3.54,14.9,3.88,.75,.09,1.47,.32,2.14,.67l10.14,5.41c2.38,1.27,3.64,3.95,3.1,6.59-1.22,5.99-4.31,16.49-11.68,22.88-1.93,1.68-4.74,1.91-6.96,.64l-9.16-5.24c-.93-.53-1.69-1.29-2.24-2.22-2.43-4.13-10.46-15.94-21.24-12.63-11.37,3.5-13.56,7.76-13.93,8.78-.09,.24-.2,.47-.32,.69l-26.01,47.38c-1.07,1.94-3.11,3.15-5.33,3.15h-42.4Z" fill="#ebebeb" stroke="#363636" stroke-miterlimit="10" stroke-width="2.81"/>
      <path d="M26,117.88H301v20c0,5.52-4.48,10-10,10H36c-5.52,0-10-4.48-10-10v-20h0Z" fill="#f8f8f8" stroke="#363636" stroke-miterlimit="10" stroke-width="2.81"/>
      <path d="M233,118.33h29v32.74c0,5.16-4.19,9.35-9.35,9.35h-10.29c-5.16,0-9.35-4.19-9.35-9.35v-32.74h0Z" fill="#fff" stroke="#363636" stroke-miterlimit="10" stroke-width="2.81"/>
      <path d="M65,118.33h29v32.74c0,5.16-4.19,9.35-9.35,9.35h-10.29c-5.16,0-9.35-4.19-9.35-9.35v-32.74h0Z" fill="#fff" stroke="#363636" stroke-miterlimit="10" stroke-width="2.81"/>
    </g>
  </g>
</svg>